<svg version="1.2" xmlns="http://www.w3.org/2000/svg" viewBox="0 0 28 20" width="28" height="20"><style>.a{fill:#f2f2f2}</style><path class="a" d="m2.8 19.3c-1.3 0-2.4-1.1-2.4-2.5v-13.5c0-1.3 1.1-2.4 2.4-2.4h21.9c1.3 0 2.4 1.1 2.4 2.4v13.5c0 1.4-1.1 2.5-2.4 2.5zm-1-15.7v12.9c0 0.8 0.7 1.4 1.5 1.4h20.8c0.7 0 1.4-0.6 1.4-1.4v-12.9c0-0.7-0.7-1.3-1.4-1.3h-20.8c-0.8 0-1.5 0.6-1.5 1.3zm21.4 9.1l-1.4-1.7-1.3 1.7h-4.4v-5.3h4.5l1.1 1.6 1.4-1.6h1.5l-2.1 2.7 2.1 2.6zm-6-1h2.6l1.2-1.6-1.1-1.5h-2.7v1h2.4v1h-2.4zm-3.7 1.1v-3.9l-1.5 3.9h-1.1l-1.5-4v4h-2.3l-0.4-1.2h-2.3l-0.5 1.2h-1.2l2.1-5.3h1.5l1.9 5v-5h1.9l1.3 3.6 1.4-3.6h1.8v5.3zm-8.7-2.4h1.3l-0.7-1.9z"/></svg>