<svg version="1.2" xmlns="http://www.w3.org/2000/svg" viewBox="0 0 37 24" width="37" height="24"><style>.a{fill:#f2f2f2}</style><path class="a" d="m34.1 24h-31.2c-1.4 0-2.5-1.1-2.5-2.4v-19.2c0-1.3 1.1-2.4 2.5-2.4h31.2c1.4 0 2.5 1.1 2.5 2.4v19.2c0 1.3-1.1 2.4-2.5 2.4zm-31.2-22.6c-0.6 0-1.1 0.5-1.1 1v19.2c0 0.5 0.5 1 1.1 1h31.2c0.6 0 1.1-0.5 1.1-1v-19.2c0-0.5-0.5-1-1.1-1z"/><path fill-rule="evenodd" class="a" d="m30.6 3.6h2.3v16.9h-2.3z"/><path fill-rule="evenodd" class="a" d="m27.2 3.6h2.3v14.6h-2.3z"/><path fill-rule="evenodd" class="a" d="m9.8 3.6h2.4v14.6h-2.4z"/><path fill-rule="evenodd" class="a" d="m21.4 3.6h2.3v14.6h-2.3z"/><path fill-rule="evenodd" class="a" d="m15.6 3.6h3.4v14.6h-3.4z"/><path fill-rule="evenodd" class="a" d="m7.6 3.6h1.1v14.6h-1.1z"/><path fill-rule="evenodd" class="a" d="m13.3 3.6h1.1v14.6h-1.1z"/><path fill-rule="evenodd" class="a" d="m24.8 3.6h1.2v14.6h-1.2z"/><path fill-rule="evenodd" class="a" d="m4.1 3.6h2.3v16.9h-2.3z"/></svg>