<svg version="1.2" xmlns="http://www.w3.org/2000/svg" viewBox="0 0 33 13" width="33" height="13"><style>.a{fill:#f2f2f2}</style><path class="a" d="m5.4 3.5q0.6-0.2 1.2-0.2c1.7 0 3.2 1.2 3.5 2.9l2.5-0.5c-0.5-2.8-3-4.9-6-4.9q-1.1 0-2 0.3z"/><path class="a" d="m2.5 11.4l1.6-1.9c-0.7-0.6-1.2-1.6-1.2-2.6 0-1.1 0.5-2 1.2-2.7l-1.6-1.8c-1.3 1.1-2.1 2.7-2.1 4.5 0 1.8 0.8 3.4 2.1 4.5z"/><path class="a" d="m10.1 7.6c-0.3 1.6-1.8 2.8-3.5 2.8q-0.6 0-1.2-0.2l-0.8 2.4q0.9 0.3 2 0.3c3 0 5.5-2.1 6-4.8z"/><path class="a" d="m14.8 9.6c0-0.1-0.2-0.3-0.2-0.5-0.4-0.9-0.4-1.8-0.1-2.7 0.4-1 1.1-1.7 2-2.1 1.1-0.5 2.4-0.4 3.5 0.3 0.7 0.3 1.2 0.9 1.5 1.8q0.1 0.2 0.2 0.3zm2.3-3.8c-0.9 0.3-1.3 1-1.2 1.9l3.4-1.4c-0.5-0.7-1.3-0.9-2.2-0.5zm2.7 3.1q0 0 0 0l-0.1-0.1q-0.3 0.5-0.9 0.8c-0.8 0.3-1.5 0.2-2-0.2l-0.1 0.1q0 0 0 0l-0.8 1.2q0.3 0.3 0.7 0.4 1.4 0.6 2.9 0 1-0.5 1.6-1.4z"/><path class="a" d="m24.1 2.4v7.1l1.1 0.4-0.7 1.5-1.2-0.5q-0.4-0.2-0.6-0.5c-0.1-0.2-0.2-0.5-0.2-0.9v-7.1z"/><path class="a" d="m27 7.7c0-0.6 0.3-1.1 0.7-1.5l-1.2-1.3c-0.8 0.7-1.2 1.7-1.2 2.8 0 1.1 0.4 2.1 1.2 2.8l1.2-1.3c-0.4-0.4-0.7-0.9-0.7-1.5z"/><path class="a" d="m29 9.7q-0.3 0-0.6-0.1l-0.6 1.6q0.6 0.2 1.2 0.2c1.9 0 3.4-1.3 3.8-3l-1.7-0.3c-0.2 0.9-1.1 1.6-2.1 1.6z"/><path class="a" d="m29 4q-0.6 0-1.2 0.2l0.6 1.6q0.3-0.1 0.6-0.1c1 0 1.9 0.7 2.1 1.6l1.7-0.3c-0.4-1.7-1.9-3-3.8-3z"/></svg>