<svg version="1.2" xmlns="http://www.w3.org/2000/svg" viewBox="0 0 36 16" width="36" height="16"><style>.a{fill:#f2f2f2}</style><path class="a" d="m15.1 15.6h-14.7v-0.1c0 0 0-0.1 0-0.2 0-0.2 0.1-0.4 0.1-0.5 0-0.1 0.1-0.3 0.1-0.4q0.1-0.5 0.2-1c0-0.1 0.1-0.3 0.1-0.5q0.1-0.2 0.1-0.5c0-0.1 0.1-0.3 0.1-0.4 0-0.2 0.1-0.4 0.1-0.5 0-0.1 0.1-0.2 0.1-0.3 0-0.1 0-0.3 0.1-0.4q0-0.3 0.1-0.5c0-0.1 0-0.3 0.1-0.5 0-0.2 0.1-0.4 0.1-0.4 0-0.1 0-0.3 0.1-0.5 0-0.2 0.1-0.4 0.1-0.4 0-0.1 0-0.3 0-0.4 0.1-0.2 0.1-0.4 0.2-0.6 0-0.2 0.1-0.5 0.1-0.7 0.1-0.2 0.1-0.5 0.1-0.6q0.1-0.4 0.2-0.8c0-0.1 0.1-0.4 0.1-0.5 0.1-0.1 0.1-0.3 0.1-0.5 0-0.1 0.1-0.3 0.1-0.4 0-0.1 0.1-0.4 0.1-0.5 0.1-0.2 0.1-0.4 0.1-0.5 0.1-0.1 0.1-0.3 0.1-0.3 0.1-0.1 0.1-0.2 0.2-0.3l0.1-0.2 0.1-0.1c0-0.1 0.1-0.2 0.2-0.3 0 0 0.1-0.1 0.2-0.2 0.1 0 0.2-0.1 0.2-0.1 0.1 0 0.2-0.1 0.2-0.1 0.1-0.1 0.2-0.1 0.2-0.1 0.1-0.1 0.2-0.1 0.3-0.1 0-0.1 0.2-0.1 0.3-0.1 0.1-0.1 0.3-0.1 0.4-0.1 0.1-0.1 0.3-0.1 0.4-0.1h0.3 14.7 14.8c0 0 0 0.1 0 0.3q-0.1 0.2-0.2 0.5c0 0.1 0 0.3-0.1 0.4q0 0.2-0.1 0.5c0 0.1 0 0.3-0.1 0.5 0 0.1 0 0.3-0.1 0.4 0 0.2 0 0.4-0.1 0.5q0 0.2-0.1 0.4c0 0.2 0 0.4-0.1 0.5 0 0.1 0 0.4-0.1 0.5 0 0.1 0 0.3-0.1 0.5 0 0.1 0 0.3-0.1 0.4 0 0.2 0 0.4-0.1 0.5 0 0.1 0 0.3-0.1 0.5q-0.1 0.4-0.2 0.9c0 0.1 0 0.3-0.1 0.4q0 0.3-0.1 0.5c0 0.2 0 0.4-0.1 0.5 0 0.1 0 0.3-0.1 0.5q0 0.2-0.1 0.5c0 0.1 0 0.3-0.1 0.4 0 0.1 0 0.4-0.1 0.5 0 0.1 0 0.3-0.1 0.5 0 0.1 0 0.3-0.1 0.4q0 0.3-0.1 0.5 0 0.2-0.1 0.5v0.2l-0.1 0.2c0 0.1-0.1 0.2-0.1 0.3 0 0-0.1 0.1-0.1 0.2-0.1 0-0.2 0.1-0.2 0.2 0 0-0.1 0.1-0.2 0.2l-0.1 0.1-0.2 0.1c-0.1 0.1-0.2 0.1-0.2 0.1 0 0.1-0.1 0.1-0.2 0.1-0.1 0.1-0.2 0.1-0.3 0.2 0 0-0.2 0-0.3 0.1-0.1 0-0.2 0-0.2 0 0 0-0.1 0-0.2 0.1-0.1 0-0.3 0-0.5 0l-0.2 0.1zm-5.3-3.7h0.4q0 0 0-0.1c0 0 0.1-0.1 0.1-0.2 0-0.1 0-0.3 0-0.5 0.1-0.2 0.1-0.4 0.1-0.6q0.1-0.2 0.1-0.4 0-0.1 0-0.2 0.1 0.1 0.1 0.1v0.1l0.1 0.1 0.1 0.1h0.2l0.1 0.1h0.1 0.2 0.2 0.1 0.2l0.2-0.1h0.1c0.1-0.1 0.2-0.1 0.3-0.2h0.1l0.1-0.2c0.1 0 0.2-0.1 0.2-0.2q0.1-0.1 0.1-0.1 0 0 0.1-0.1c0 0 0-0.1 0.1-0.2 0-0.1 0.1-0.3 0.1-0.4l0.1-0.2v-0.2c0.1-0.1 0.1-0.2 0.1-0.3v-0.2-0.2-0.1-0.2l-0.1-0.1v-0.1l-0.1-0.2-0.1-0.1-0.1-0.1-0.2-0.1h-0.1l-0.2-0.1h-0.1-0.2-0.1-0.2-0.2l-0.1 0.1h-0.1-0.2c0 0.1-0.1 0.1-0.2 0.1q-0.1 0.1-0.1 0.1 0 0.1-0.1 0.1v-0.1q0.1-0.2 0.1-0.2h-0.7l-0.1 0.3c0 0.2 0 0.5-0.1 0.7q-0.1 0.5-0.2 1.1c0 0.2 0 0.4-0.1 0.6 0 0.1 0 0.4-0.1 0.5 0 0.1 0 0.3-0.1 0.5q0 0.3-0.1 0.5 0 0.3-0.1 0.6c0 0.1 0 0.3 0 0.3h-0.1zm1.7-2h-0.1-0.1-0.1-0.1l-0.1-0.1h-0.1l-0.1-0.1v-0.1c0 0-0.1-0.1-0.1-0.2v-0.1-0.1-0.2l0.1-0.2q0-0.2 0.1-0.5c0-0.2 0-0.4 0.1-0.5v-0.3l0.1-0.1c0.1 0 0.2-0.1 0.2-0.1h0.1l0.1-0.1h0.2 0.1 0.2 0.1 0.1l0.1 0.1h0.1l0.1 0.1h0.1v0.1c0 0.1 0.1 0.1 0.1 0.2v0.1 0.3 0.4 0.2c-0.1 0.1-0.1 0.2-0.1 0.3l-0.1 0.2-0.1 0.1c0 0.1-0.1 0.2-0.1 0.2-0.1 0.1-0.1 0.2-0.2 0.2q0 0-0.1 0.1l-0.2 0.1h-0.1zm3.7 0.5h0.2 0.2c0.1 0 0.2 0 0.3-0.1 0.2 0 0.3 0 0.5 0l0.2-0.1v-0.1c0 0 0-0.1 0-0.2l0.1-0.2v-0.1l-0.1 0.1c0 0-0.1 0-0.2 0.1h-0.2l-0.2 0.1h-0.2-0.3-0.4-0.1c0-0.1-0.1-0.1-0.2-0.1v-0.1h-0.1l-0.1-0.1v-0.1l-0.1-0.1v-0.1l-0.1-0.1v-0.2-0.2l0.1-0.2v-0.2h0.3 0.2 1 1l0.1-0.1c0-0.1 0-0.2 0-0.3v-0.2-0.2-0.1-0.2-0.1h-0.1q0-0.1-0.1-0.2 0 0-0.1-0.1 0 0-0.1-0.1h-0.1l-0.2-0.1h-0.1-0.2-0.2-0.2-0.2-0.2l-0.2 0.1h-0.1c-0.1 0.1-0.2 0.1-0.3 0.1-0.1 0.1-0.1 0.1-0.2 0.2 0 0-0.1 0.1-0.2 0.1 0 0.1-0.1 0.1-0.1 0.2-0.1 0.1-0.1 0.2-0.2 0.2 0 0.1 0 0.2-0.1 0.2 0 0.1 0 0.2 0 0.2-0.1 0.1-0.1 0.2-0.1 0.3q-0.1 0.2-0.1 0.4v0.2 0.2 0.3 0.1c0 0 0 0.1 0.1 0.2 0 0 0 0.1 0 0.2 0.1 0 0.1 0.1 0.2 0.1 0 0 0.1 0.1 0.1 0.1 0.1 0.1 0.2 0.1 0.2 0.2h0.1 0.2c0.1 0 0.2 0.1 0.2 0.1 0.1 0 0.3 0 0.4 0zm0.3-2.4c-0.5 0-0.9 0-0.9 0q0 0 0-0.1c0.1-0.1 0.1-0.2 0.1-0.3l0.1-0.1 0.1-0.1 0.1-0.1 0.2-0.1c0 0 0.1 0 0.1 0 0.1 0 0.2 0 0.3-0.1h0.2 0.1l0.1 0.1h0.1l0.1 0.1h0.1q0.1 0.1 0.1 0.1v0.1 0.1 0.1 0.1 0.2zm5.3 2.4h0.2 0.3c0.1 0 0.3-0.1 0.3-0.1q0.2 0 0.3 0 0.1-0.1 0.2-0.1 0 0 0-0.2c0 0 0-0.2 0.1-0.2q0-0.1 0-0.1 0 0-0.1 0c0 0-0.1 0-0.2 0.1h-0.1l-0.3 0.1h-0.2-0.2-0.2-0.2l-0.1-0.1-0.1-0.1h-0.1v-0.1l-0.1-0.1v-0.2-0.1-0.2-0.2-0.2-0.2l0.1-0.2q0-0.1 0-0.1c0-0.1 0.1-0.1 0.1-0.2 0-0.1 0.1-0.2 0.1-0.3l0.1-0.1 0.1-0.1h0.1l0.1-0.1 0.2-0.1c0 0 0.1 0 0.2 0l0.1-0.1 0.2 0.1h0.2 0.3l0.2 0.1h0.1q0.1 0 0.1 0 0 0 0-0.1c0-0.1 0.1-0.2 0.1-0.3q0-0.1 0-0.2 0 0-0.2 0c0 0-0.3 0-0.5 0h-0.3-0.2-0.3-0.2l-0.1 0.1h-0.2c0 0-0.1 0.1-0.2 0.1q0 0.1-0.1 0.1c0 0-0.1 0.1-0.2 0.2l-0.1 0.1-0.1 0.1c0 0.1-0.1 0.2-0.2 0.3v0.1l-0.1 0.2c0 0.1-0.1 0.3-0.1 0.4l-0.1 0.2v0.1 0.2 0.2 0.2 0.1 0.2l0.1 0.1v0.1l0.1 0.1 0.1 0.1 0.1 0.1 0.1 0.1h0.1l0.1 0.1h0.1c0.1 0 0.2 0.1 0.2 0.1 0.1 0 0.2 0 0.3 0zm3 0h0.2l0.2-0.1h0.1 0.1c0.1-0.1 0.2-0.1 0.2-0.1 0.1-0.1 0.2-0.1 0.2-0.2 0.1 0 0.1-0.1 0.2-0.2q0 0 0 0 0 0 0 0.1c0 0.1 0 0.2 0 0.3v0.1h0.7v-0.2-0.3-0.3c0-0.2 0.1-0.4 0.1-0.6 0-0.1 0.1-0.3 0.1-0.5 0-0.1 0.1-0.4 0.1-0.5l0.1-0.3v-0.2-0.2l-0.1-0.1v-0.1h-0.1l-0.1-0.1-0.1-0.1h-0.1l-0.2-0.1h-0.1-0.3-0.2-0.3c-0.2 0-0.4 0-0.5 0l-0.2 0.1h-0.2-0.1v0.1c0 0-0.1 0.1-0.1 0.2 0 0.1-0.1 0.2-0.1 0.2q0.1 0 0.2 0c0.1 0 0.3-0.1 0.5-0.1h0.2 0.3l0.2-0.1 0.2 0.1h0.1l0.1 0.1h0.1l0.1 0.1v0.1 0.1 0.1 0.2 0.1h-0.7-0.6l-0.2 0.1c-0.1 0-0.3 0-0.3 0.1q-0.1 0-0.1 0 0 0-0.1 0.1l-0.2 0.1-0.1 0.1c-0.1 0-0.1 0.1-0.2 0.1 0 0.1 0 0.2-0.1 0.3v0.1l-0.1 0.1v0.2 0.3 0.1l0.1 0.2v0.1c0 0 0.1 0.1 0.1 0.1l0.1 0.1h0.1l0.1 0.1h0.1c0.1 0.1 0.2 0.1 0.2 0.1h0.1zm0.3-0.5h-0.2-0.1c0 0-0.1 0-0.1-0.1h-0.1-0.1q0-0.1-0.1-0.2v-0.2-0.2-0.1c0 0 0.1-0.1 0.1-0.2l0.1-0.1 0.1-0.1 0.1-0.1h0.1l0.1-0.1h0.2l0.1-0.1h0.9v0.1 0.1c0 0.1 0 0.2 0 0.3-0.1 0.1-0.1 0.2-0.1 0.3q-0.1 0.1-0.1 0.1 0 0-0.1 0.1v0.1l-0.1 0.1q-0.1 0.1-0.2 0.1 0 0 0 0.1h-0.1l-0.1 0.1h-0.2zm5.8 0.5h0.2 0.2c0 0 0.2-0.1 0.2-0.1 0.1 0 0.1 0 0.2-0.1h0.1l0.1-0.1 0.1-0.1 0.1-0.1c0-0.1 0.1-0.1 0.1-0.1v-0.1 0.1q0 0.1 0 0.2c0 0 0 0.1 0 0.2l-0.1 0.1h0.7v-0.2l0.1-0.5c0-0.2 0.1-0.5 0.1-0.7 0-0.1 0-0.3 0.1-0.4 0-0.2 0-0.4 0.1-0.5 0-0.1 0-0.4 0.1-0.5 0-0.2 0-0.4 0.1-0.6 0-0.1 0-0.3 0.1-0.5 0-0.1 0-0.3 0.1-0.5q0-0.2 0.1-0.5c0-0.1 0-0.2 0-0.2h-0.8v0.1c0 0.1 0 0.3 0 0.5q-0.1 0.3-0.2 0.6 0 0.2 0 0.4h-0.1c0 0-0.1 0-0.2-0.1h-0.1-0.3-0.2-0.2-0.2l-0.2 0.1h-0.1l-0.2 0.1-0.2 0.1h-0.1l-0.1 0.1-0.1 0.1c-0.1 0.1-0.2 0.2-0.2 0.3l-0.1 0.1-0.1 0.2c-0.1 0.1-0.1 0.2-0.2 0.3 0 0 0 0.2-0.1 0.3v0.2 0.3l-0.1 0.2 0.1 0.3v0.2q0 0.1 0.1 0.2v0.1l0.1 0.1v0.1h0.1l0.1 0.1 0.1 0.1c0.1 0 0.2 0 0.2 0 0.1 0.1 0.2 0.1 0.2 0.1 0.1 0 0.2 0 0.3 0zm0.3-0.5h-0.1-0.1c0 0-0.1 0-0.2 0l-0.1-0.1-0.1-0.1-0.1-0.1v-0.1-0.1l-0.1-0.1v-0.2-0.3l0.1-0.2v-0.2-0.1q0.1-0.1 0.1-0.2 0 0 0-0.1 0.1-0.1 0.2-0.2c0-0.1 0-0.2 0.1-0.2 0-0.1 0.1-0.1 0.1-0.2 0.1 0 0.2-0.1 0.2-0.1h0.1l0.1-0.1h0.2 0.3 0.3 0.1c0.1 0 0.2 0.1 0.2 0.1h0.1c0 0.1 0 0.2-0.1 0.3 0 0.1 0 0.3-0.1 0.5 0 0.1 0 0.3-0.1 0.5 0 0.1 0 0.3 0 0.3q-0.1 0.1-0.1 0.2c0 0.1 0 0.2-0.1 0.2 0 0.1 0 0.2-0.1 0.2q0 0.1-0.1 0.1c0 0.1-0.1 0.1-0.2 0.2l-0.2 0.1h-0.1zm-26.3 0.4h0.4v-0.2c0-0.1 0.1-0.3 0.1-0.4l0.1-0.6c0-0.1 0.1-0.4 0.1-0.5 0-0.2 0.1-0.4 0.1-0.5 0-0.2 0-0.3 0-0.3h0.1 2.3v0.1c0 0.1 0 0.3-0.1 0.4 0 0.2-0.1 0.4-0.1 0.6q0 0.2-0.1 0.5c0 0.1-0.1 0.3-0.1 0.5 0 0.2-0.1 0.4-0.1 0.4h0.9v-0.1c0.1-0.1 0.1-0.2 0.1-0.2 0-0.1 0-0.3 0-0.4 0.1-0.1 0.1-0.3 0.1-0.5 0.1-0.1 0.1-0.4 0.1-0.6 0.1-0.1 0.1-0.4 0.1-0.5q0.1-0.3 0.1-0.5c0.1-0.2 0.1-0.4 0.1-0.6 0.1-0.1 0.1-0.4 0.1-0.5 0.1-0.1 0.1-0.4 0.1-0.5 0.1-0.2 0.1-0.4 0.1-0.5v-0.1h-0.8v0.1c-0.1 0-0.1 0.2-0.1 0.3 0 0.1-0.1 0.3-0.1 0.4 0 0.1 0 0.4-0.1 0.5q0 0.3-0.1 0.5v0.2h-0.6l-0.7 0.1-0.5-0.1c-0.3 0-0.6 0-0.6 0q0 0 0.1-0.1 0-0.2 0-0.3 0.1-0.2 0.1-0.4c0-0.1 0-0.3 0.1-0.4 0 0 0-0.1 0-0.2 0-0.1 0-0.2 0.1-0.3 0-0.1 0-0.2 0-0.3h-0.9v0.2c0 0 0 0.2 0 0.2 0 0.1-0.1 0.3-0.1 0.5 0 0.1-0.1 0.4-0.1 0.6l-0.1 0.5q0 0.4-0.1 0.7-0.1 0.2-0.1 0.5c0 0.1-0.1 0.3-0.1 0.5q0 0.2-0.1 0.4c0 0.2-0.1 0.3-0.1 0.3 0 0.1 0 0.2 0 0.3 0 0.2-0.1 0.3-0.1 0.3zm4.8 0h0.4q0-0.1 0-0.1c0 0 0.1-0.2 0.1-0.4q0.1-0.6 0.2-1.2 0.1-0.2 0.1-0.5c0-0.1 0.1-0.3 0.1-0.5 0-0.1 0.1-0.3 0.1-0.5 0-0.2 0.1-0.3 0.1-0.3h-0.4-0.4v0.2c0 0.1-0.1 0.3-0.1 0.5 0 0.2-0.1 0.5-0.1 0.6q-0.1 0.3-0.1 0.5c0 0.2-0.1 0.4-0.1 0.5 0 0.2-0.1 0.4-0.1 0.5 0 0.2-0.1 0.4-0.1 0.5 0 0.1 0 0.1 0 0.2zm8.9 0h0.4v-0.1c0-0.1 0.1-0.3 0.1-0.4 0-0.2 0-0.4 0.1-0.6q0-0.3 0.1-0.6c0-0.2 0.1-0.4 0.1-0.4q0-0.1 0-0.1 0-0.1 0.1-0.2c0-0.1 0.1-0.2 0.1-0.2l0.1-0.2 0.1-0.1 0.1-0.1h0.2l0.1-0.1h0.2 0.2l0.1 0.1q0.1 0 0.1 0 0 0 0-0.1c0 0 0.1-0.1 0.1-0.2 0-0.1 0-0.2 0-0.2q0 0-0.1-0.1c-0.1 0-0.2 0-0.2 0h-0.1-0.1c-0.1 0-0.2 0-0.2 0-0.1 0.1-0.2 0.1-0.2 0.1-0.1 0.1-0.2 0.1-0.2 0.2-0.1 0-0.1 0.1-0.2 0.2q-0.1 0-0.1 0.1v0.1-0.1c0 0 0-0.2 0-0.3 0.1-0.1 0.1-0.2 0.1-0.2h-0.7c0 0 0 0.2 0 0.3-0.1 0.1-0.1 0.4-0.1 0.5-0.1 0.2-0.1 0.4-0.1 0.6q-0.1 0.3-0.1 0.6-0.1 0.5-0.2 1c-0.1 0.1-0.1 0.3-0.1 0.4q0 0.1 0 0.1zm9 0h0.4v-0.2l0.1-0.3c0-0.2 0-0.4 0-0.6 0.1-0.1 0.1-0.3 0.1-0.4 0 0 0.1-0.2 0.1-0.3 0-0.2 0.1-0.3 0.1-0.4q0 0 0-0.1c0 0 0-0.1 0.1-0.1l0.1-0.2v-0.1l0.1-0.1 0.2-0.1c0 0 0.1-0.1 0.2-0.1l0.1-0.1h0.2 0.2l0.1 0.1h0.1v-0.1c0 0 0-0.1 0.1-0.2v-0.2-0.1q-0.1 0-0.2 0h-0.1-0.1-0.2-0.1l-0.2 0.1h-0.1l-0.1 0.1-0.1 0.1-0.1 0.1-0.1 0.1q0 0.1-0.1 0.1c0 0 0.1-0.1 0.1-0.2 0-0.2 0-0.3 0-0.3h-0.6c0 0 0 0.1-0.1 0.2 0 0.1 0 0.4 0 0.6q-0.1 0.3-0.1 0.6-0.1 0.2-0.1 0.5c-0.1 0.1-0.1 0.4-0.1 0.5-0.1 0.2-0.1 0.4-0.2 0.5v0.4l-0.1 0.2zm-17.3-4.2h0.1 0.1 0.1l0.1-0.1 0.1-0.1v-0.1l0.1-0.1v-0.1-0.2h-0.1v-0.1h-0.1-0.3-0.1-0.1v0.1h-0.1v0.1l-0.1 0.1v0.2 0.1 0.1l0.1 0.1h0.1z"/></svg>