<svg version="1.2" xmlns="http://www.w3.org/2000/svg" viewBox="0 0 26 24" width="26" height="24"><style>.a{fill:#f2f2f2}</style><path class="a" d="m13.2 20.7c0-0.9-0.3-1.8-1-2.4-0.6-0.7-1.5-1-2.4-1-0.8 0-1.7 0.3-2.3 0.9-0.7 0.7-1 1.5-1 2.4 0 0.9 0.3 1.8 0.9 2.4 0.7 0.6 1.5 1 2.4 1 0.9 0 1.8-0.4 2.4-1 0.6-0.6 1-1.5 1-2.3zm-4.9 0c0-0.4 0.2-0.8 0.5-1.1 0.3-0.3 0.6-0.5 1-0.5 0.5 0 0.8 0.2 1.1 0.5 0.3 0.2 0.5 0.6 0.5 1 0 0.4-0.2 0.8-0.5 1.1-0.3 0.3-0.7 0.5-1.1 0.4-0.4 0-0.7-0.1-1-0.4-0.3-0.3-0.5-0.6-0.5-1z"/><path class="a" d="m22.5 20.7c0-0.9-0.4-1.8-1-2.4-0.6-0.6-1.5-1-2.3-1-0.9 0-1.8 0.4-2.4 1-0.6 0.6-1 1.5-1 2.4 0 0.8 0.4 1.7 1 2.3 0.6 0.6 1.5 1 2.4 1 0.8 0 1.7-0.4 2.3-1 0.6-0.6 1-1.5 1-2.3zm-4.8 0c0-0.4 0.1-0.8 0.4-1.1 0.3-0.3 0.7-0.4 1.1-0.4 0.4 0 0.7 0.1 1 0.4 0.3 0.3 0.4 0.7 0.4 1.1 0.1 0.4-0.1 0.7-0.4 1-0.3 0.3-0.6 0.5-1 0.4-0.4 0-0.8-0.1-1.1-0.4-0.3-0.3-0.4-0.6-0.4-1z"/><path class="a" d="m24.4 5h-18l-0.7-3.6q-0.1-0.3-0.3-0.5-0.2-0.2-0.5-0.3l-3.2-0.6q-0.4 0-0.7 0.2-0.3 0.2-0.4 0.6-0.1 0.3 0.1 0.7 0.3 0.3 0.6 0.3l2.7 0.5 2.2 11.4c0.2 0.8 0.6 1.5 1.2 2 0.6 0.5 1.4 0.8 2.2 0.8h10.1c0.8 0 1.5-0.3 2.1-0.7 0.6-0.5 1-1.1 1.2-1.8l2.3-7.8c0.1-0.3 0-0.6-0.2-0.8-0.2-0.3-0.4-0.4-0.7-0.4zm-3.2 8.5q-0.1 0.5-0.5 0.8-0.5 0.3-1 0.3h-10.1q-0.6 0-1-0.3-0.4-0.4-0.5-0.9l-1.3-6.5h16.3z"/></svg>