<svg version="1.2" xmlns="http://www.w3.org/2000/svg" viewBox="0 0 19 20" width="19" height="20"><style>.a{fill:#3cd3ff}</style><path class="a" d="m5.6 19.5c-1.5 0-2.9-0.5-4-1.5q-0.8-0.8-1.2-1.9-0.4-1-0.4-2.2v-7.8q-0.1-1.2 0.3-2.2 0.4-1.1 1.2-1.9 0.8-0.8 1.9-1.2 1-0.4 2.2-0.3h7.8q1.2 0 2.2 0.4 1.1 0.4 1.9 1.2 0.7 0.8 1.1 1.8 0.4 1 0.4 2.2v7.8q0 1.2-0.4 2.2-0.4 1.1-1.2 1.9c-1.1 1-2.5 1.6-4 1.5zm-2.8-16.2q-0.5 0.5-0.8 1.3-0.3 0.7-0.2 1.5v7.8q-0.1 0.8 0.2 1.5 0.3 0.8 0.8 1.3c0.8 0.7 1.8 1.1 2.8 1h7.8c1.1 0.1 2.1-0.3 2.8-1q0.6-0.5 0.9-1.2 0.3-0.8 0.2-1.6v-7.8c0.1-1.1-0.3-2-1-2.8q-0.6-0.5-1.3-0.8-0.7-0.3-1.5-0.2h-7.9c-1-0.1-2 0.3-2.8 1zm1.8 6.7c0-1 0.3-2 0.8-2.8 0.6-0.8 1.3-1.4 2.2-1.8 0.9-0.3 1.9-0.4 2.9-0.2 0.9 0.1 1.8 0.6 2.5 1.3 0.7 0.7 1.1 1.6 1.3 2.5 0.2 1 0.1 1.9-0.3 2.8-0.3 0.9-1 1.7-1.8 2.2-0.8 0.6-1.7 0.9-2.7 0.9-1.3 0-2.5-0.6-3.4-1.5-1-0.9-1.5-2.1-1.5-3.4zm1.8 0c0 0.6 0.2 1.2 0.5 1.7 0.4 0.5 0.8 0.9 1.4 1.2 0.6 0.2 1.2 0.3 1.8 0.1 0.6-0.1 1.2-0.4 1.6-0.8 0.5-0.5 0.8-1 0.9-1.6 0.1-0.6 0.1-1.3-0.2-1.8-0.2-0.6-0.6-1.1-1.1-1.4-0.6-0.4-1.2-0.6-1.8-0.6-0.8 0-1.6 0.4-2.2 1-0.6 0.5-0.9 1.3-0.9 2.2zm7.1-5.1q0-0.3 0.2-0.6 0.2-0.2 0.5-0.4 0.3-0.1 0.6 0 0.4 0 0.6 0.3 0.2 0.2 0.3 0.5 0.1 0.4-0.1 0.7-0.1 0.3-0.4 0.5-0.3 0.2-0.6 0.2-0.2 0-0.4-0.1-0.2-0.1-0.4-0.3-0.1-0.1-0.2-0.3-0.1-0.2-0.1-0.4z"/></svg>