<svg version="1.2" xmlns="http://www.w3.org/2000/svg" viewBox="0 0 19 20" width="19" height="20"><style>.a{fill:#f2f2f2}</style><path class="a" d="m8.4 0.7q0.5 0 1 0.1 2.4 0.5 4.1 2.2 1.6 1.6 2.1 3.8 0.5 2.8-0.8 5.3c-0.3 0.5-0.7 1-1 1.5q-0.1 0-0.1 0 0.1 0.1 0.1 0.1 2.3 2.3 4.6 4.5c0.1 0.1 0.2 0.3 0.3 0.4v0.3q-0.1 0.3-0.5 0.4h-0.2c-0.2-0.1-0.3-0.1-0.5-0.3q-2.3-2.2-4.6-4.5 0 0-0.1-0.1-0.1 0.1-0.1 0.1-1.6 1.2-3.4 1.5c-1.9 0.3-3.7 0-5.4-0.9q-2.6-1.5-3.5-4.3-0.3-0.9-0.4-1.8 0 0 0-0.1v-1q0-0.1 0-0.2 0.1-0.4 0.2-0.9 0.4-2.2 2-3.7 1.7-1.8 4.2-2.3 0.5-0.1 0.9-0.1zm-7.1 7.7q0 0.3 0 0.7c0.2 1.4 0.7 2.6 1.7 3.7 1.7 1.8 3.9 2.5 6.3 2 2.1-0.4 3.7-1.6 4.7-3.6 0.9-2 0.8-4-0.2-5.9-1.1-2-2.8-3.1-5.1-3.4q-2.6-0.3-4.8 1.3c-1.7 1.3-2.6 3-2.6 5.2z"/></svg>