<svg width="41" height="23" viewBox="0 0 41 23" fill="none" xmlns="http://www.w3.org/2000/svg">
<rect width="41" height="22" rx="4" fill="#00264E"/>
<path d="M11.71 7.95V15H10.74L6.96 10.08V15H5.76V7.95H6.72L10.5 12.86V7.95H11.71ZM16.3707 15.09C15.684 15.09 15.0874 14.9433 14.5807 14.65C14.0807 14.3567 13.694 13.9367 13.4207 13.39C13.1474 12.8433 13.0107 12.2033 13.0107 11.47C13.0107 10.7367 13.144 10.1 13.4107 9.56C13.684 9.01333 14.074 8.59333 14.5807 8.3C15.0874 8.00667 15.684 7.86 16.3707 7.86C17.0574 7.86 17.6507 8.00667 18.1507 8.3C18.6574 8.59333 19.044 9.01333 19.3107 9.56C19.584 10.1 19.7207 10.7367 19.7207 11.47C19.7207 12.2033 19.584 12.8433 19.3107 13.39C19.0374 13.9367 18.6474 14.3567 18.1407 14.65C17.6407 14.9433 17.0507 15.09 16.3707 15.09ZM16.3707 14.06C17.0174 14.06 17.5207 13.8367 17.8807 13.39C18.2474 12.9433 18.4307 12.3033 18.4307 11.47C18.4307 10.6367 18.2474 10 17.8807 9.56C17.5207 9.11333 17.0174 8.89 16.3707 8.89C15.7174 8.89 15.2074 9.11333 14.8407 9.56C14.4807 10 14.3007 10.6367 14.3007 11.47C14.3007 12.3033 14.4807 12.9433 14.8407 13.39C15.2074 13.8367 15.7174 14.06 16.3707 14.06ZM27.3279 7.95L24.1879 15H23.1379L19.9979 7.95H21.3279L23.6679 13.4L26.0179 7.95H27.3279ZM30.9508 15.09C30.2641 15.09 29.6674 14.9433 29.1608 14.65C28.6608 14.3567 28.2741 13.9367 28.0008 13.39C27.7274 12.8433 27.5908 12.2033 27.5908 11.47C27.5908 10.7367 27.7241 10.1 27.9908 9.56C28.2641 9.01333 28.6541 8.59333 29.1608 8.3C29.6674 8.00667 30.2641 7.86 30.9508 7.86C31.6374 7.86 32.2308 8.00667 32.7308 8.3C33.2374 8.59333 33.6241 9.01333 33.8908 9.56C34.1641 10.1 34.3008 10.7367 34.3008 11.47C34.3008 12.2033 34.1641 12.8433 33.8908 13.39C33.6174 13.9367 33.2274 14.3567 32.7208 14.65C32.2208 14.9433 31.6308 15.09 30.9508 15.09ZM30.9508 14.06C31.5974 14.06 32.1008 13.8367 32.4608 13.39C32.8274 12.9433 33.0108 12.3033 33.0108 11.47C33.0108 10.6367 32.8274 10 32.4608 9.56C32.1008 9.11333 31.5974 8.89 30.9508 8.89C30.2974 8.89 29.7874 9.11333 29.4208 9.56C29.0608 10 28.8808 10.6367 28.8808 11.47C28.8808 12.3033 29.0608 12.9433 29.4208 13.39C29.7874 13.8367 30.2974 14.06 30.9508 14.06Z" fill="white"/>
</svg>
