<svg version="1.2" xmlns="http://www.w3.org/2000/svg" viewBox="0 0 34 10" width="34" height="10"><style>.a{fill:#f2f2f2}</style><path class="a" d="m14.1 9.3h-1.2c-0.2 0-0.2-0.2-0.1-0.3l1.3-1.8-1.4-3.8c0-0.2 0.1-0.3 0.3-0.3h1q0.3 0 0.4 0.2l0.8 2.4 1.6-2.4c0.2-0.2 0.2-0.2 0.4-0.2h1.2c0.2 0 0.2 0.2 0.1 0.3l-4.1 5.7q-0.1 0.2-0.3 0.2 0 0 0 0zm10.2-3.6c0.1-1.5 1.2-2.7 2.8-2.8 0.7 0 1.2 0.2 1.4 0.7q0.1 0.1 0.1-0.1l0.1-0.2q0-0.2 0.2-0.2h1.1q0.2 0 0.2 0.3l-0.7 3.9c0 0.3-0.1 0.4-0.3 0.4h-1q-0.2 0-0.2-0.3v-0.3c0.1-0.1-0.1 0-0.2 0.1-0.4 0.4-0.8 0.6-1.6 0.6-1.1 0-2-0.9-1.9-2.1zm1.6-0.3c-0.1 0.6 0.4 1.2 1.1 1.2 0.7 0 1.3-0.6 1.4-1.2 0.1-0.7-0.4-1.2-1.1-1.2-0.7 0-1.3 0.5-1.4 1.2zm-19.8 0.3c0.1-1.5 1.2-2.7 2.8-2.8 0.7 0 1.2 0.2 1.4 0.7q0.1 0.1 0.1-0.1l0.1-0.2q0-0.2 0.2-0.2h1.1q0.3 0 0.2 0.3l-0.6 3.9c-0.1 0.3-0.2 0.4-0.4 0.4h-1q-0.2 0-0.2-0.3l0.1-0.3c0-0.1-0.1 0-0.2 0.1-0.5 0.4-0.8 0.6-1.7 0.6-1.1 0-2-0.9-1.9-2.1zm1.6-0.3c-0.1 0.6 0.4 1.2 1.1 1.2 0.7 0 1.3-0.6 1.4-1.2 0.1-0.7-0.4-1.2-1.1-1.2-0.6 0-1.3 0.5-1.4 1.2zm24.1 2.3h-1.2q-0.1 0-0.1-0.1-0.1 0-0.1-0.1l1.1-6.5q0-0.2 0.2-0.2h1.2q0.1 0 0.1 0 0.1 0.1 0 0.2l-1 6.5q-0.1 0.2-0.2 0.2zm-13-0.1q-0.3 0-0.3-0.3l1-6.1c0.1-0.3 0.2-0.4 0.4-0.4h2.8c1.1 0 2.1 0.5 1.9 2-0.1 1.6-1.1 2.5-2.5 2.5h-1.3q-0.2 0-0.3 0.5l-0.2 1.5q-0.1 0.3-0.4 0.3zm3.3-5.5h-0.9l-0.3 1.9h0.9c0.6 0 1-0.4 1.1-1.1 0-0.5-0.3-0.8-0.8-0.8q0 0 0 0zm-21.4 5.5q-0.3 0-0.3-0.3l1-6.1c0.1-0.3 0.2-0.4 0.4-0.4h2.8c1.1 0 2.1 0.5 1.9 2-0.1 1.6-1.1 2.5-2.5 2.5h-1.3q-0.2 0-0.3 0.5l-0.2 1.5q-0.1 0.3-0.4 0.3zm3.3-5.5h-0.9l-0.3 1.9h0.9c0.6 0 1-0.4 1.1-1.1 0-0.5-0.3-0.8-0.8-0.8q0 0 0 0z"/></svg>