<svg version="1.2" xmlns="http://www.w3.org/2000/svg" viewBox="0 0 24 23" width="24" height="23"><style>.a{fill:#f2f2f2}</style><path class="a" d="m9.6 21.8l-4.5-4.4h0.7c0.9 0 1.8-0.3 2.4-0.9l3.6-3.5c0.2-0.2 0.6-0.2 0.9 0l3.5 3.5c0.6 0.6 1.5 0.9 2.4 0.9h0.4l-4.4 4.4c-0.7 0.7-1.6 1-2.5 1-0.9 0-1.9-0.3-2.5-1zm-8.2-8c-1.4-1.3-1.4-3.5 0-4.9l2.7-2.6q0.1 0 0.2 0h1.5c0.6 0 1.2 0.3 1.7 0.7l3.5 3.5c0.4 0.3 0.8 0.4 1.2 0.4 0.4 0 0.9-0.1 1.2-0.4l3.5-3.5c0.5-0.4 1.1-0.6 1.7-0.6h1.3q0.1 0 0.1-0.1l2.7 2.6c1.4 1.4 1.4 3.6 0 4.9l-2.7 2.7q0-0.1-0.1-0.1h-1.3c-0.6 0-1.2-0.2-1.7-0.7l-3.5-3.4c-0.6-0.6-1.7-0.6-2.4 0l-3.5 3.5c-0.5 0.4-1.1 0.6-1.7 0.6h-1.5q-0.1 0-0.2 0.1zm10.4-4.1l-3.6-3.4c-0.6-0.7-1.5-1-2.4-1h-0.7l4.5-4.4c1.4-1.3 3.6-1.3 5 0l4.5 4.4h-0.5c-0.9 0-1.7 0.3-2.4 1l-3.5 3.4q-0.2 0.2-0.5 0.2-0.2 0-0.4-0.2z"/></svg>