<svg version="1.2" xmlns="http://www.w3.org/2000/svg" viewBox="0 0 19 22" width="19" height="22"><style>.a{fill:#3cd3ff}</style><path class="a" d="m16.3 5q-0.2-0.1-0.4-0.3-0.6-0.3-1.1-0.9c-0.6-0.6-1-1.5-1.2-2.4q0-0.5 0-0.9h-3.6v13.9q0 0.3 0 0.6 0 0 0 0.1 0 0 0 0-0.1 0.8-0.5 1.4-0.4 0.7-1 1-0.7 0.4-1.5 0.4c-0.9 0-1.6-0.3-2.2-0.9-0.6-0.5-0.9-1.3-0.9-2.1 0-0.8 0.3-1.6 0.9-2.2 0.6-0.6 1.3-0.9 2.2-0.9q0.4 0 0.9 0.2v-3.7q-1.4-0.2-2.7 0.2-1.4 0.4-2.5 1.3-0.9 0.8-1.5 1.9c-0.5 0.9-0.8 2-0.8 3q0 1.3 0.4 2.4 0.3 1 1 1.8 0.6 0.9 1.5 1.5c1.1 0.7 2.4 1.1 3.7 1.1 1 0 1.9-0.2 2.7-0.6q1.3-0.6 2.3-1.7 0.7-0.9 1.2-2 0.4-1.1 0.4-2.3v-7.4c0 0 0.6 0.4 0.6 0.4q1 0.6 2.2 0.9 1.1 0.3 2.2 0.3v-3.6c-0.8 0.1-1.6-0.1-2.3-0.5z"/></svg>