<svg version="1.2" xmlns="http://www.w3.org/2000/svg" viewBox="0 0 21 24" width="21" height="24"><defs><clipPath clipPathUnits="userSpaceOnUse" id="cp1"><path d="m0 0h20.57v24h-20.57z"/></clipPath></defs><style>.a{fill:#6c3ebe}</style><g clip-path="url(#cp1)"><path fill-rule="evenodd" class="a" d="m18.8 15.5c1.1 1.1 1.8 2.6 1.8 4.2v1.7c0 0.7-0.3 1.4-0.8 1.8-0.5 0.5-1.1 0.8-1.8 0.8h-15.4c-0.7 0-1.4-0.3-1.8-0.8-0.5-0.4-0.8-1.1-0.8-1.8v-1.7c0-1.6 0.6-3.1 1.8-4.2 1.1-1.2 2.6-1.8 4.2-1.8h8.6c1.6 0 3.1 0.6 4.2 1.8zm-15.8 1.2c-0.8 0.8-1.3 1.9-1.3 3v1.7q0 0.4 0.3 0.6 0.2 0.3 0.6 0.3h15.4q0.2 0 0.3-0.1 0.2 0 0.3-0.2 0.1-0.1 0.2-0.2 0.1-0.2 0.1-0.4v-1.7c0-1.1-0.5-2.2-1.3-3-0.8-0.8-1.9-1.3-3-1.3h-8.6c-1.1 0-2.2 0.5-3 1.3zm11.5-14.9c1.2 1.1 1.8 2.6 1.8 4.2 0 1.2-0.4 2.3-1 3.3-0.7 1-1.6 1.8-2.7 2.2-1.1 0.5-2.3 0.6-3.5 0.4-1.1-0.2-2.2-0.8-3.1-1.7-0.8-0.8-1.4-1.9-1.6-3-0.2-1.2-0.1-2.4 0.3-3.5 0.5-1.1 1.3-2 2.3-2.7 0.9-0.6 2.1-1 3.3-1 1.6 0 3.1 0.6 4.2 1.8zm-7.2 1.2c-0.8 0.8-1.3 1.9-1.3 3 0 0.8 0.3 1.7 0.7 2.4 0.5 0.7 1.2 1.2 1.9 1.6 0.8 0.3 1.7 0.4 2.5 0.2 0.9-0.2 1.6-0.6 2.2-1.2 0.6-0.6 1-1.3 1.2-2.2 0.2-0.8 0.1-1.7-0.3-2.4-0.3-0.8-0.8-1.5-1.5-2-0.7-0.4-1.6-0.7-2.4-0.7-1.2 0-2.2 0.5-3 1.3z"/></g></svg>