<svg version="1.2" xmlns="http://www.w3.org/2000/svg" viewBox="0 0 34 11" width="34" height="11"><style>.a{fill:#f2f2f2}</style><path class="a" d="m24.7 1.2c-0.5-0.2-1.4-0.4-2.4-0.4-2.7 0-4.6 1.3-4.6 3.2 0 1.4 1.3 2.2 2.4 2.6 1 0.5 1.4 0.8 1.4 1.2 0 0.7-0.9 1-1.7 1-1 0-1.6-0.2-2.5-0.5l-0.3-0.2-0.4 2.2c0.6 0.2 1.8 0.5 3 0.5 2.9 0 4.7-1.3 4.7-3.3 0.1-1.1-0.7-2-2.2-2.6-1-0.5-1.5-0.8-1.5-1.3 0-0.4 0.5-0.8 1.5-0.8 0.9 0 1.5 0.2 2 0.4l0.3 0.1 0.4-2.1zm6.9-0.2h-2.1c-0.6 0-1.1 0.1-1.4 0.8l-4 8.8h2.8l0.6-1.4h3.5c0.1 0.3 0.3 1.4 0.3 1.4h2.5zm-17.8 0h2.7l-1.7 9.6h-2.7l1.7-9.6zm-6.9 5.3l0.3 1.3 2.6-6.6h2.9l-4.3 9.7h-2.8l-2.4-8.2c0-0.1-0.1-0.2-0.2-0.3q-1.2-0.6-2.7-1v-0.2h4.4c0.6 0.1 1.1 0.2 1.2 0.9l1 4.4zm21.4 1l1-2.7c0 0 0.3-0.6 0.4-0.9l0.2 0.8 0.6 2.8h-2.2z"/></svg>