<svg version="1.2" xmlns="http://www.w3.org/2000/svg" viewBox="0 0 27 26" width="27" height="26"><style>.a{fill:#3cd3ff}</style><path class="a" d="m4.1 20.4q-0.5-0.3-0.9-0.7-0.4-0.4-0.6-1-0.6-2.9-0.5-5.9-0.1-3 0.5-5.9 0.2-0.6 0.6-1.1 0.4-0.4 0.9-0.6c3.4-1.3 8.7-1.3 9.3-1.3h0.1c0.6 0 5.9 0 9.3 1.3q0.6 0.2 1 0.6 0.3 0.5 0.5 1 0.6 3 0.6 6 0 3-0.6 5.9-0.2 0.6-0.5 1-0.4 0.4-1 0.7c-3.4 1.3-8.7 1.3-9.3 1.3-0.7 0-6 0-9.4-1.3zm0.6-13.7q-0.2 0.1-0.3 0.2-0.1 0.2-0.2 0.4-0.6 2.7-0.5 5.5-0.1 2.8 0.5 5.5 0.1 0.2 0.2 0.3 0.1 0.2 0.3 0.3c3.1 1.2 8.5 1.2 8.7 1.2 0.3 0 5.7 0 8.8-1.3q0.2 0 0.3-0.2 0.2-0.1 0.2-0.3 0.6-2.7 0.5-5.5 0.1-2.8-0.5-5.5 0-0.2-0.2-0.4-0.1-0.1-0.3-0.2c-3.1-1.2-8.5-1.2-8.7-1.2h-0.1c-0.2 0-5.6 0-8.7 1.2zm6.8 10.1q-0.2-0.2-0.4-0.3-0.1-0.2-0.1-0.5v-6.5q0-0.2 0.1-0.4 0.2-0.2 0.4-0.3 0.2-0.1 0.4-0.1 0.2 0 0.4 0.1l4.9 3.3q0.1 0.1 0.2 0.3 0.1 0.2 0.1 0.4 0 0.2-0.1 0.4-0.1 0.1-0.2 0.2l-4.9 3.3q-0.2 0.1-0.4 0.1-0.2 0.1-0.4-0.1zm1.2-2.2l2.6-1.7-2.6-1.8z"/></svg>