<svg version="1.2" xmlns="http://www.w3.org/2000/svg" viewBox="0 0 39 38" width="39" height="38"><style>.a{fill:#fff}.b{fill:#fff;stroke:#005cff}.c{fill:#3cd3ff}</style><path fill-rule="evenodd" class="a" d="m19.4 31c-8.3 0-15-6.7-15-15 0-8.3 6.7-15 15-15 8.3 0 15 6.7 15 15 0 8.3-6.7 15-15 15z"/><path fill-rule="evenodd" class="b" d="m19.4 30.5c-8 0-14.5-6.5-14.5-14.5 0-8 6.5-14.5 14.5-14.5 8 0 14.5 6.5 14.5 14.5 0 8-6.5 14.5-14.5 14.5z"/><path class="c" d="m19.9 11l-1.4 1.4 3.1 3.1h-8.2v2h8.2l-3.1 3.1 1.4 1.4 5.5-5.5z"/></svg>