<svg version="1.2" xmlns="http://www.w3.org/2000/svg" viewBox="0 0 38 38" width="38" height="38"><style>.a{fill:#fff}.b{fill:#fff;stroke:#005cff}.c{fill:#3cd3ff}</style><path fill-rule="evenodd" class="a" d="m19 1c8.3 0 15 6.7 15 15 0 8.3-6.7 15-15 15-8.3 0-15-6.7-15-15 0-8.3 6.7-15 15-15z"/><path fill-rule="evenodd" class="b" d="m19 1.5c8 0 14.5 6.5 14.5 14.5 0 8-6.5 14.5-14.5 14.5-8 0-14.5-6.5-14.5-14.5 0-8 6.5-14.5 14.5-14.5z"/><path class="c" d="m18.5 21l1.4-1.4-3.1-3.1h8.2v-2h-8.2l3.1-3.1-1.4-1.4-5.5 5.5z"/></svg>